<?xml version="1.0" standalone="no"?>
<!DOCTYPE svg PUBLIC "-//W3C//DTD SVG 20010904//EN"
 "http://www.w3.org/TR/2001/REC-SVG-20010904/DTD/svg10.dtd">
<svg version="1.0" xmlns="http://www.w3.org/2000/svg"
 width="369.000000pt" height="319.000000pt" viewBox="0 0 369.000000 319.000000"
 preserveAspectRatio="xMidYMid meet">

<g transform="translate(0.000000,319.000000) scale(0.100000,-0.100000)"
fill="#000000" stroke="none">
<path d="M67 3140 c-15 -12 -31 -38 -37 -58 -14 -52 -14 -2023 1 -2075 7 -26
21 -44 42 -57 31 -19 55 -20 640 -20 l607 0 -5 -23 c-3 -12 -19 -92 -35 -177
l-30 -154 -205 -206 c-203 -204 -205 -207 -205 -249 0 -34 6 -49 29 -72 l29
-29 952 0 952 0 29 29 c23 24 29 38 29 73 0 42 -2 44 -205 248 l-205 205 -35
174 c-19 96 -35 176 -35 178 0 2 269 3 599 3 400 0 608 4 629 11 17 6 39 23
49 37 17 26 18 80 21 1032 2 553 0 1025 -3 1049 -5 30 -16 54 -35 73 l-28 28
-1760 0 c-1757 0 -1759 0 -1785 -20z m3403 -1095 l0 -915 -1620 0 -1620 0 0
915 0 915 1620 0 1620 0 0 -915z m-1269 -1260 c15 -77 28 -143 28 -147 1 -5
-170 -8 -379 -8 -209 0 -380 4 -380 8 0 11 50 263 55 280 4 10 74 12 326 10
l322 -3 28 -140z m214 -465 l100 -100 -665 0 -665 0 100 100 99 99 55 3 c31 2
241 2 466 0 l410 -2 100 -100z"/>
<path d="M2180 2714 c-388 -46 -621 -307 -620 -694 1 -276 128 -501 350 -619
94 -50 193 -71 339 -71 197 0 375 47 478 126 l33 25 -2 257 -3 257 -208 3
-208 2 3 -67 3 -68 120 -5 120 -5 3 -148 3 -148 -55 -25 c-74 -34 -175 -54
-273 -54 -193 0 -323 64 -424 208 -54 77 -80 164 -86 293 -18 347 179 569 506
569 109 0 185 -19 288 -71 53 -27 102 -49 110 -49 13 0 82 87 83 105 0 13 -93
81 -153 112 -95 48 -293 80 -407 67z"/>
<path d="M1090 2020 l0 -680 90 0 90 0 0 680 0 680 -90 0 -90 0 0 -680z"/>
</g>
</svg>
